<?xml version="1.0" encoding="UTF-8" standalone="no"?>
<!-- Created with Inkscape (http://www.inkscape.org/) -->

<svg
   width="48"
   height="48"
   viewBox="0 0 48 48"
   version="1.1"
   id="svg1"
   inkscape:version="1.2.2 (b0a8486541, 2022-12-01)"
   sodipodi:docname="d8_dice.svg"
   xml:space="preserve"
   inkscape:export-filename="d8_dice.png"
   inkscape:export-xdpi="96"
   inkscape:export-ydpi="96"
   xmlns:inkscape="http://www.inkscape.org/namespaces/inkscape"
   xmlns:sodipodi="http://sodipodi.sourceforge.net/DTD/sodipodi-0.dtd"
   xmlns="http://www.w3.org/2000/svg"
   xmlns:svg="http://www.w3.org/2000/svg"><sodipodi:namedview
     id="namedview1"
     pagecolor="#505050"
     bordercolor="#eeeeee"
     borderopacity="1"
     inkscape:showpageshadow="0"
     inkscape:pageopacity="0"
     inkscape:pagecheckerboard="0"
     inkscape:deskcolor="#d1d1d1"
     inkscape:document-units="px"
     inkscape:zoom="12.433308"
     inkscape:cx="20.790927"
     inkscape:cy="24.651525"
     inkscape:window-width="1920"
     inkscape:window-height="1005"
     inkscape:window-x="0"
     inkscape:window-y="0"
     inkscape:window-maximized="1"
     inkscape:current-layer="layer4"
     showgrid="false"
     showguides="true"><sodipodi:guide
       position="16.768253,31.266284"
       orientation="0,-1"
       id="guide374"
       inkscape:locked="false" /><sodipodi:guide
       position="7.0870778,48"
       orientation="1,0"
       id="guide378"
       inkscape:locked="false" /><sodipodi:guide
       position="42.203773,27.713208"
       orientation="1,0"
       id="guide380"
       inkscape:locked="false" /></sodipodi:namedview><defs
     id="defs1"><inkscape:path-effect
       effect="fillet_chamfer"
       id="path-effect6423"
       is_visible="true"
       lpeversion="1"
       nodesatellites_param="F,0,0,1,0,2.0420022,0,1 @ F,0,0,1,0,1.9772987,0,1 @ F,0,0,1,0,2.2795492,0,1"
       unit="px"
       method="auto"
       mode="F"
       radius="0"
       chamfer_steps="1"
       flexible="false"
       use_knot_distance="true"
       apply_no_radius="true"
       apply_with_radius="true"
       only_selected="false"
       hide_knots="false" /><inkscape:path-effect
       effect="fillet_chamfer"
       id="path-effect6421"
       is_visible="true"
       lpeversion="1"
       nodesatellites_param="F,0,0,1,0,1.9881922,0,1 @ F,0,0,1,0,3.1894454,0,1 @ F,0,0,1,0,2.7775337,0,1"
       unit="px"
       method="auto"
       mode="F"
       radius="0"
       chamfer_steps="1"
       flexible="false"
       use_knot_distance="true"
       apply_no_radius="true"
       apply_with_radius="true"
       only_selected="false"
       hide_knots="false" /><inkscape:path-effect
       effect="fillet_chamfer"
       id="path-effect6419"
       is_visible="true"
       lpeversion="1"
       nodesatellites_param="F,0,0,1,0,2.2388237,0,1 @ F,0,0,1,0,2.1668633,0,1 @ F,0,0,1,0,2.5708443,0,1"
       unit="px"
       method="auto"
       mode="F"
       radius="0"
       chamfer_steps="1"
       flexible="false"
       use_knot_distance="true"
       apply_no_radius="true"
       apply_with_radius="true"
       only_selected="false"
       hide_knots="false" /><inkscape:path-effect
       effect="fillet_chamfer"
       id="path-effect6417"
       is_visible="true"
       lpeversion="1"
       nodesatellites_param="F,0,0,1,0,2.3219666,0,1 @ F,0,0,1,0,2.605891,0,1 @ F,0,0,1,0,2.6185721,0,1"
       unit="px"
       method="auto"
       mode="F"
       radius="0"
       chamfer_steps="1"
       flexible="false"
       use_knot_distance="true"
       apply_no_radius="true"
       apply_with_radius="true"
       only_selected="false"
       hide_knots="false" /><inkscape:path-effect
       effect="bspline"
       id="path-effect14174"
       is_visible="true"
       lpeversion="1"
       weight="33.333333"
       steps="2"
       helper_size="0"
       apply_no_weight="true"
       apply_with_weight="true"
       only_selected="false" /><inkscape:path-effect
       effect="bspline"
       id="path-effect14170"
       is_visible="true"
       lpeversion="1"
       weight="33.333333"
       steps="2"
       helper_size="0"
       apply_no_weight="true"
       apply_with_weight="true"
       only_selected="false" /><inkscape:path-effect
       effect="bspline"
       id="path-effect14166"
       is_visible="true"
       lpeversion="1"
       weight="33.333333"
       steps="2"
       helper_size="0"
       apply_no_weight="true"
       apply_with_weight="true"
       only_selected="false" /><inkscape:path-effect
       effect="bspline"
       id="path-effect9080"
       is_visible="true"
       lpeversion="1"
       weight="33.333333"
       steps="2"
       helper_size="0"
       apply_no_weight="true"
       apply_with_weight="true"
       only_selected="false" /><inkscape:path-effect
       effect="bspline"
       id="path-effect9076"
       is_visible="true"
       lpeversion="1"
       weight="33.333333"
       steps="2"
       helper_size="0"
       apply_no_weight="true"
       apply_with_weight="true"
       only_selected="false" /></defs><g
     inkscape:label="Capa 1"
     inkscape:groupmode="layer"
     id="layer1" /><g
     inkscape:groupmode="layer"
     id="layer4"
     inkscape:label="d8"
     style="display:inline"><path
       id="path24217"
       style="fill:#ffffff;stroke:#000000;stroke-width:0.967445;stroke-linecap:round;stroke-linejoin:bevel"
       inkscape:transform-center-x="1.0013782"
       inkscape:transform-center-y="4.5297756"
       d="m 27.65099,10.58634 8.544654,3.11926 a 0.34964275,0.34964275 100.02695 0 1 -0.119894,0.678085 l -21.09759,3.37e-4 a 0.38224466,0.38224466 80.480038 0 1 -0.124699,-0.743579 l 8.949046,-3.08822 a 5.751467,5.751467 0.50790398 0 1 3.848483,0.03412 z"
       sodipodi:nodetypes="cccc"
       transform="matrix(0.6339954,1.1135695,-1.1135695,0.6339954,33.120551,-18.067592)"
       inkscape:path-effect="#path-effect6423"
       inkscape:original-d="m 25.732805,9.8860983 12.320244,4.4975547 -25.354438,4.06e-4 z" /><path
       id="path24995"
       style="fill:#ffffff;stroke:#000000;stroke-width:1.20023;stroke-linecap:round;stroke-linejoin:bevel"
       inkscape:transform-center-x="-1.0013778"
       inkscape:transform-center-y="4.5297755"
       d="m 9.7077779,26.453921 5.4255061,11.383675 a 0.7262204,0.7262204 167.34461 0 0 1.381787,-0.310269 l 0.07646,-25.48832 A 0.65498974,0.65498974 13.440774 0 0 15.351442,11.742644 L 9.7460149,22.883106 a 4.0590921,4.0590921 90.613511 0 0 -0.038237,3.570815 z"
       sodipodi:nodetypes="cccc"
       transform="matrix(0.8944912,0.51643474,-0.51643474,0.8944912,15.088287,-11.664441)"
       inkscape:path-effect="#path-effect6421"
       inkscape:original-d="M 8.8523823,24.659149 16.505504,40.716758 16.59986,9.2614854 Z" /><path
       id="path24997"
       style="fill:#ffffff;stroke:#000000;stroke-width:1.21402;stroke-linecap:round;stroke-linejoin:bevel"
       inkscape:transform-center-x="-3.5485463"
       inkscape:transform-center-y="-0.1054721"
       d="M 36.047609,38.016633 42.40768,27.388778 A 0.67851359,0.67851359 45.492178 0 0 41.487089,26.452234 L 18.964447,39.410331 a 0.64520926,0.64520926 73.92842 0 0 0.346862,1.203975 l 13.223745,-0.514887 a 4.2879023,4.2879023 149.33398 0 0 3.512555,-2.082786 z"
       sodipodi:nodetypes="cccc"
       transform="matrix(0.8944912,0.51643474,-0.51643474,0.8944912,15.088287,-11.664441)"
       inkscape:path-effect="#path-effect6417"
       inkscape:original-d="M 34.855262,40.009078 43.745824,25.152702 16.69472,40.716187 Z" /><path
       sodipodi:type="star"
       style="fill:#ffffff;stroke:#b5b5b5;stroke-width:0.967445;stroke-linejoin:bevel;stroke-dasharray:none;stroke-opacity:1"
       id="path24154"
       inkscape:flatsided="true"
       sodipodi:sides="3"
       sodipodi:cx="25.397785"
       sodipodi:cy="7.0264282"
       sodipodi:r1="14.638458"
       sodipodi:r2="7.3757882"
       sodipodi:arg1="-1.5677966"
       sodipodi:arg2="-0.52059902"
       inkscape:rounded="0"
       inkscape:randomized="0"
       d="M 26.555287,-5.6697368 36.975252,12.503853 a 1.2510391,1.2510391 120.17187 0 1 -1.089056,1.8733 L 15.269443,14.315308 A 1.4842776,1.4842776 60.171872 0 1 13.990705,12.085046 L 24.316474,-5.6764526 a 1.2925855,1.2925855 0.17187169 0 1 2.238813,0.00672 z"
       transform="matrix(1.2814005,-3.0116326e-8,3.0116326e-8,1.2814005,-7.4472395,14.946596)"
       inkscape:transform-center-x="0.64032186"
       inkscape:transform-center-y="-4.1602784"
       inkscape:path-effect="#path-effect6419" /></g><g
     inkscape:groupmode="layer"
     id="layer2"
     inkscape:label="original numbers"
     style="display:none"><text
       xml:space="preserve"
       style="font-style:normal;font-variant:normal;font-weight:normal;font-stretch:normal;font-size:18.0726px;font-family:serif;-inkscape-font-specification:serif;text-align:center;text-anchor:middle;display:inline;fill:#000000;stroke:#000000;stroke-width:1.20024;stroke-linejoin:round;stroke-dasharray:none"
       x="-34.080044"
       y="-4.0392981"
       id="text25003"
       transform="matrix(-0.52864456,-0.88732986,0.88732986,-0.52864456,15.088287,-11.664441)"><tspan
         sodipodi:role="line"
         id="tspan25001"
         style="font-style:normal;font-variant:normal;font-weight:normal;font-stretch:normal;font-size:18.0726px;font-family:serif;-inkscape-font-specification:serif;stroke:none;stroke-width:1.20023"
         x="-34.080044"
         y="-4.0392981">8</tspan></text><text
       xml:space="preserve"
       style="font-style:normal;font-variant:normal;font-weight:normal;font-stretch:normal;font-size:7.15928px;font-family:serif;-inkscape-font-specification:serif;text-align:center;text-anchor:middle;display:inline;fill:#000000;stroke:#000000;stroke-width:0.832061;stroke-linejoin:round;stroke-dasharray:none"
       x="23.334038"
       y="-29.963984"
       id="text25007"
       transform="matrix(0.73972152,1.2931587,-0.57413113,0.34818147,0,0)"><tspan
         sodipodi:role="line"
         id="tspan25005"
         style="font-style:normal;font-variant:normal;font-weight:normal;font-stretch:normal;font-size:7.15928px;font-family:serif;-inkscape-font-specification:serif;stroke:none;stroke-width:0.832054"
         x="23.334038"
         y="-29.963984">5</tspan></text><text
       xml:space="preserve"
       style="font-style:normal;font-variant:normal;font-weight:normal;font-stretch:normal;font-size:9.42387px;font-family:serif;-inkscape-font-specification:serif;text-align:center;text-anchor:middle;display:inline;fill:#000000;stroke:#000000;stroke-width:1.09527;stroke-linejoin:round;stroke-dasharray:none"
       x="-15.161234"
       y="-34.030052"
       id="text28705"
       transform="matrix(-1.406053,0.92863596,0.1781953,-0.82890089,0,0)"><tspan
         sodipodi:role="line"
         id="tspan28703"
         style="font-style:normal;font-variant:normal;font-weight:normal;font-stretch:normal;font-size:9.42387px;font-family:serif;-inkscape-font-specification:serif;stroke:none;stroke-width:1.09526"
         x="-15.161234"
         y="-34.030052">2</tspan></text><text
       xml:space="preserve"
       style="font-style:normal;font-variant:normal;font-weight:normal;font-stretch:normal;font-size:10.293px;font-family:serif;-inkscape-font-specification:serif;text-align:center;text-anchor:middle;display:inline;fill:#000000;stroke:#000000;stroke-width:1.19627;stroke-linejoin:round;stroke-dasharray:none"
       x="-20.601053"
       y="71.860207"
       id="text28709"
       transform="matrix(1.2633575,-0.83713719,0.7550978,0.29119196,0,0)"
       inkscape:transform-center-x="-0.44290054"
       inkscape:transform-center-y="0.84666104"><tspan
         sodipodi:role="line"
         id="tspan28707"
         style="font-style:normal;font-variant:normal;font-weight:normal;font-stretch:normal;font-size:10.293px;font-family:serif;-inkscape-font-specification:serif;stroke:none;stroke-width:1.19626"
         x="-20.601053"
         y="71.860207">6</tspan></text></g><g
     inkscape:groupmode="layer"
     id="layer3"
     inkscape:label="path numbers"><g
       aria-label="8"
       transform="matrix(-0.52864456,-0.88732986,0.88732986,-0.52864456,15.088287,-11.664441)"
       id="text1265"
       style="font-size:18.0726px;font-family:serif;-inkscape-font-specification:serif;text-align:center;text-anchor:middle;display:inline;stroke:#000000;stroke-width:1.20024;stroke-linejoin:round"><path
         d="m -34.197516,-3.8585721 q -1.355445,0 -2.277147,-0.4518149 -0.90363,-0.4698876 -1.373518,-1.2470094 -0.451815,-0.7771218 -0.451815,-1.716897 0,-0.8674847 0.361452,-1.4638805 0.361452,-0.5963958 0.97592,-1.0301382 0.632541,-0.4337419 1.409663,-0.8132669 -1.030138,-0.578323 -1.680752,-1.373518 -0.650613,-0.795194 -0.650613,-1.933768 0,-0.831339 0.397597,-1.572316 0.397597,-0.740976 1.247009,-1.192791 0.867485,-0.469888 2.259075,-0.469888 1.698825,0 2.620527,0.885557 0.939775,0.867485 0.939775,2.22293 0,1.192792 -0.668686,1.861478 -0.668686,0.650613 -1.771114,1.192791 1.337372,0.632541 2.168711,1.4638809 0.83134,0.8313396 0.83134,2.0060586 0,1.7168969 -1.174719,2.6747447 -1.174719,0.9578477 -3.162705,0.9578477 z m 0.451815,-7.5182009 q 1.012066,-0.506033 1.355445,-1.120502 0.361452,-0.614468 0.361452,-1.554243 0,-0.560251 -0.198798,-1.066283 -0.198799,-0.506033 -0.650614,-0.83134 -0.451815,-0.325307 -1.210864,-0.325307 -1.012066,0 -1.554244,0.614469 -0.542178,0.614468 -0.542178,1.554243 0,0.97592 0.614469,1.572316 0.614468,0.596396 1.825332,1.156647 z m -0.361452,6.6868614 q 1.174719,0 1.879551,-0.6686862 0.722903,-0.6867588 0.722903,-1.7349696 0,-0.9217025 -0.722903,-1.6084613 -0.704832,-0.6867588 -2.457874,-1.4458083 -0.849412,0.4518153 -1.355445,1.1927919 -0.506033,0.7409766 -0.506033,1.7530421 0,1.1205012 0.614469,1.8253326 0.614468,0.6867588 1.825332,0.6867588 z"
         style="stroke:none;stroke-width:1.20023"
         id="path1288" /></g><g
       aria-label="5"
       transform="matrix(0.73972152,1.2931587,-0.57413113,0.34818147,0,0)"
       id="text1269"
       style="font-size:7.15928px;font-family:serif;-inkscape-font-specification:serif;text-align:center;text-anchor:middle;display:inline;stroke:#000000;stroke-width:0.832061;stroke-linejoin:round"><path
         d="m 23.079883,-29.892391 q -0.529786,0 -0.823317,-0.114548 -0.29353,-0.114549 -0.415238,-0.279212 -0.114549,-0.171823 -0.114549,-0.329327 0,-0.20046 0.10739,-0.307849 0.114548,-0.114549 0.343645,-0.114549 0,0.30785 0.214778,0.515469 0.214779,0.207619 0.651495,0.207619 0.29353,0 0.522627,-0.114549 0.236257,-0.114548 0.365124,-0.379442 0.136026,-0.264893 0.136026,-0.715928 0,-0.565583 -0.30069,-0.837635 -0.29353,-0.279212 -0.787521,-0.279212 -0.372282,0 -0.558423,0.05011 -0.186142,0.05011 -0.322168,0.107389 l -0.171823,-0.05011 0.229097,-2.541544 h 2.3912 l 0.0358,1.081051 h -0.30069 l -0.02864,-0.214778 q -0.02148,-0.150345 -0.09307,-0.221938 -0.06443,-0.07159 -0.293531,-0.07159 h -1.3889 l -0.136027,1.582201 q 0.10739,-0.0358 0.315009,-0.07159 0.207619,-0.04296 0.522627,-0.04296 0.465353,0 0.830477,0.171823 0.372282,0.164664 0.587061,0.50115 0.214778,0.329327 0.214778,0.837635 0,0.486831 -0.207619,0.859114 -0.20046,0.365123 -0.587061,0.572742 -0.386601,0.20046 -0.937866,0.20046 z"
         style="stroke:none;stroke-width:0.832054"
         id="path1285" /></g><g
       aria-label="2"
       transform="matrix(-1.406053,0.92863596,0.1781953,-0.82890089,0,0)"
       id="text1273"
       style="font-size:9.42387px;font-family:serif;-inkscape-font-specification:serif;text-align:center;text-anchor:middle;display:inline;stroke:#000000;stroke-width:1.09527;stroke-linejoin:round"><path
         d="m -17.22035,-34.030052 v -0.687943 l 1.573787,-1.818807 q 0.499465,-0.58428 0.791605,-1.008354 0.29214,-0.433498 0.41465,-0.819876 0.131934,-0.386379 0.131934,-0.819877 0,-0.537161 -0.235596,-0.866996 -0.226173,-0.329836 -0.725638,-0.329836 -0.424075,0 -0.650248,0.197902 -0.226172,0.197901 -0.310987,0.518313 -0.07539,0.310987 -0.07539,0.687942 -0.33926,0 -0.574856,-0.12251 -0.235597,-0.131934 -0.235597,-0.490042 0,-0.546584 0.46177,-0.904691 0.471193,-0.358107 1.385309,-0.358107 0.895267,0 1.404156,0.433498 0.508889,0.424074 0.508889,1.140288 0,0.659671 -0.41465,1.29107 -0.41465,0.621976 -1.159136,1.441853 l -1.592634,1.762263 h 2.176914 q 0.424074,0 0.574856,-0.216749 0.150782,-0.216749 0.216749,-0.490041 l 0.03769,-0.16963 h 0.395803 l -0.04712,1.63033 z"
         style="stroke:none;stroke-width:1.09526"
         id="path1282" /></g><g
       aria-label="6"
       transform="matrix(1.2633575,-0.83713719,0.7550978,0.29119196,0,0)"
       id="text1277"
       style="font-size:10.293px;font-family:serif;-inkscape-font-specification:serif;text-align:center;text-anchor:middle;display:inline;stroke:#000000;stroke-width:1.19627;stroke-linejoin:round"
       inkscape:transform-center-x="-0.44290054"
       inkscape:transform-center-y="0.84666104"><path
         d="m -20.462098,71.963137 q -0.679338,0 -1.224867,-0.380841 -0.535236,-0.391134 -0.854319,-1.224867 -0.30879,-0.844026 -0.30879,-2.202702 0,-0.730803 0.164688,-1.399849 0.164688,-0.679338 0.494064,-1.204281 0.329376,-0.535236 0.833733,-0.833733 0.51465,-0.30879 1.193988,-0.30879 0.854319,0 1.276332,0.329376 0.422013,0.329376 0.422013,0.751389 0,0.61758 -0.792561,0.61758 0,-0.504357 -0.20586,-0.854319 -0.20586,-0.349962 -0.699924,-0.349962 -0.771975,0 -1.173402,0.771975 -0.401427,0.761682 -0.452892,2.254168 0.257325,-0.20586 0.607287,-0.370548 0.360255,-0.164688 0.864612,-0.164688 0.946956,0 1.502778,0.566115 0.566115,0.555822 0.566115,1.54395 0,0.72051 -0.267618,1.276332 -0.257325,0.555822 -0.751389,0.874905 -0.494064,0.30879 -1.193988,0.30879 z m 0.03088,-0.566115 q 0.545529,0 0.833733,-0.422013 0.298497,-0.432306 0.298497,-1.368969 0,-0.885198 -0.319083,-1.286625 -0.30879,-0.401427 -0.905784,-0.401427 -0.401427,0 -0.741096,0.195567 -0.329376,0.185274 -0.535236,0.401427 0.02059,1.54395 0.380841,2.212995 0.370548,0.669045 0.988128,0.669045 z"
         style="stroke:none;stroke-width:1.19626"
         id="path1279" /></g></g></svg>
