<?xml version="1.0" standalone="no"?>
<!DOCTYPE svg PUBLIC "-//W3C//DTD SVG 1.1//EN" 
  "http://www.w3.org/Graphics/SVG/1.1/DTD/svg11.dtd">
<svg width="1024" height="1024" viewBox="0 0 1024 1024"
     xmlns="http://www.w3.org/2000/svg" version="1.1">
<desc>d12.blend, (Blender 4.3.2)</desc>
<polygon stroke="black" stroke-width="1" fill="rgb(204, 204, 204)" fill-opacity="0.25" points="830.874,361.287 716.194,444.597 759.986,579.417 901.740,579.424 945.553,444.611 " />
<polygon stroke="black" stroke-width="1" fill="rgb(204, 204, 204)" fill-opacity="0.25" points="372.141,797.540 486.808,880.867 601.500,797.561 557.708,662.742 415.954,662.727 " />
<polygon stroke="black" stroke-width="1" fill="rgb(204, 204, 204)" fill-opacity="0.25" points="530.634,579.405 672.388,579.412 716.194,444.597 601.515,361.273 486.835,444.595 " />
<polygon stroke="black" stroke-width="1" fill="rgb(204, 204, 204)" fill-opacity="0.25" points="301.275,579.403 186.594,662.713 230.387,797.533 372.141,797.540 415.954,662.727 " />
<polygon stroke="black" stroke-width="1" fill="rgb(204, 204, 204)" fill-opacity="0.25" points="901.774,143.161 787.082,226.467 830.874,361.287 972.628,361.302 1016.441,226.489 " />
<polygon stroke="black" stroke-width="1" fill="rgb(204, 204, 204)" fill-opacity="0.25" points="601.529,91.650 645.328,226.460 787.082,226.467 830.888,91.652 716.209,8.328 " />
<polygon stroke="black" stroke-width="1" fill="rgb(204, 204, 204)" fill-opacity="0.25" points="44.841,662.698 1.028,797.511 115.695,880.839 230.387,797.533 186.594,662.713 " />
<polygon stroke="black" stroke-width="1" fill="rgb(204, 204, 204)" fill-opacity="0.25" points="415.954,662.727 530.634,579.405 486.835,444.595 345.081,444.588 301.275,579.403 " />
<polygon stroke="black" stroke-width="1" fill="rgb(204, 204, 204)" fill-opacity="0.25" points="230.387,797.533 186.581,932.348 301.260,1015.672 415.940,932.350 372.141,797.540 " />
<polygon stroke="black" stroke-width="1" fill="rgb(204, 204, 204)" fill-opacity="0.25" points="787.082,226.467 645.328,226.460 601.515,361.273 716.194,444.597 830.874,361.287 " />
<polygon stroke="black" stroke-width="1" fill="rgb(204, 204, 204)" fill-opacity="0.25" points="415.969,226.439 459.761,361.258 601.515,361.273 645.328,226.460 530.661,143.133 " />
<polygon stroke="black" stroke-width="1" fill="rgb(204, 204, 204)" fill-opacity="0.25" points="257.483,444.583 115.729,444.576 71.916,579.389 186.594,662.713 301.275,579.403 " />

</svg>
